<svg xmlns="http://www.w3.org/2000/svg" id="canvas" viewBox="255.512 384.179 992.587 136.527"><path d="M 290.05,442.99 C 288.41 443.73, 287.75 445.14, 286.27 448.12 C 284.79 451.10, 284.48 453.38, 282.67 457.88 C 280.86 462.38, 279.59 465.50, 277.21 470.64 C 274.83 475.78, 273.37 478.75, 270.76 483.58 C 268.15 488.42, 266.57 490.98, 264.18 494.82 C 261.80 498.66, 259.66 500.07, 258.84 502.78 C 258.03 505.48, 258.82 507.09, 260.10 508.34 C 261.38 509.59, 263.31 510.16, 265.26 509.02 C 267.20 507.89, 267.78 506.22, 269.82 502.68 C 271.86 499.14, 272.63 496.26, 275.47 491.32 C 278.30 486.38, 280.09 483.28, 284.00 477.98 C 287.91 472.68, 290.42 469.75, 295.01 464.80 C 299.59 459.86, 302.31 457.29, 306.92 453.26 C 311.54 449.23, 314.05 447.30, 318.08 444.66 C 322.12 442.02, 324.38 441.34, 327.08 440.07 C 329.77 438.81, 330.63 438.55, 331.58 438.32 C 332.53 438.10, 332.05 437.96, 331.84 438.95 C 331.62 439.95, 331.06 440.69, 330.52 443.31 C 329.98 445.92, 330.15 448.09, 329.14 452.04 C 328.12 455.98, 327.23 458.62, 325.44 463.04 C 323.66 467.46, 322.36 470.09, 320.22 474.14 C 318.08 478.20, 316.40 480.09, 314.75 483.30 C 313.09 486.51, 311.93 487.85, 311.94 490.17 C 311.96 492.50, 313.00 493.92, 314.84 494.94 C 316.67 495.96, 318.70 496.64, 321.11 495.27 C 323.53 493.89, 324.02 491.63, 326.91 488.05 C 329.81 484.48, 331.54 481.84, 335.59 477.39 C 339.64 472.93, 342.25 470.23, 347.18 465.79 C 352.11 461.35, 355.08 458.88, 360.24 455.17 C 365.40 451.46, 368.30 449.67, 372.98 447.24 C 377.66 444.80, 380.25 444.03, 383.65 443.00 C 387.05 441.97, 388.43 442.15, 389.99 442.09 C 391.55 442.02, 391.38 441.74, 391.45 442.66 C 391.51 443.58, 390.95 444.18, 390.33 446.70 C 389.71 449.22, 389.66 451.31, 388.36 455.27 C 387.06 459.23, 385.94 461.94, 383.82 466.52 C 381.70 471.10, 380.15 473.77, 377.76 478.18 C 375.38 482.59, 373.90 484.84, 371.91 488.58 C 369.92 492.32, 368.38 493.97, 367.82 496.88 C 367.25 499.79, 368.29 501.40, 369.07 503.12 C 369.85 504.85, 370.71 505.23, 371.71 505.50 C 372.71 505.77, 373.44 505.05, 374.07 504.47 C 374.69 503.89, 374.31 503.63, 374.85 502.61 C 375.38 501.59, 375.90 501.52, 376.75 499.39 C 377.59 497.27, 377.60 495.55, 379.08 491.99 C 380.56 488.42, 381.85 485.98, 384.14 481.55 C 386.44 477.12, 388.09 474.49, 390.54 469.85 C 392.99 465.20, 394.51 462.69, 396.38 458.33 C 398.25 453.97, 399.64 451.84, 399.91 448.05 C 400.18 444.26, 399.55 442.04, 397.73 439.37 C 395.91 436.69, 394.08 435.26, 390.81 434.66 C 387.55 434.06, 385.55 434.85, 381.42 436.35 C 377.28 437.84, 375.01 439.25, 370.14 442.14 C 365.27 445.03, 362.41 446.93, 357.09 450.81 C 351.76 454.70, 348.75 457.20, 343.51 461.56 C 338.28 465.92, 335.50 468.53, 330.89 472.61 C 326.28 476.70, 323.84 478.86, 320.44 481.97 C 317.05 485.09, 315.05 485.99, 313.93 488.20 C 312.81 490.42, 313.88 492.04, 314.85 493.05 C 315.82 494.06, 317.20 494.38, 318.78 493.26 C 320.35 492.15, 321.05 490.62, 322.72 487.48 C 324.39 484.34, 325.15 481.84, 327.13 477.57 C 329.12 473.31, 330.52 470.72, 332.63 466.16 C 334.74 461.60, 336.06 459.11, 337.69 454.77 C 339.33 450.44, 340.61 448.22, 340.79 444.48 C 340.98 440.74, 340.33 438.63, 338.61 436.07 C 336.89 433.52, 335.14 432.28, 332.20 431.70 C 329.25 431.11, 327.42 431.53, 323.88 433.13 C 320.35 434.74, 318.62 436.48, 314.51 439.71 C 310.41 442.94, 308.01 444.98, 303.35 449.29 C 298.70 453.60, 295.98 456.22, 291.21 461.25 C 286.45 466.29, 283.89 469.26, 279.54 474.48 C 275.19 479.69, 273.04 482.66, 269.48 487.34 C 265.92 492.02, 263.93 494.31, 261.75 497.89 C 259.56 501.46, 258.55 502.97, 258.57 505.21 C 258.59 507.46, 260.17 508.75, 261.84 509.11 C 263.52 509.48, 265.19 509.20, 266.94 507.04 C 268.69 504.88, 268.66 502.37, 270.57 498.29 C 272.49 494.21, 273.96 491.56, 276.53 486.64 C 279.09 481.71, 280.74 478.79, 283.39 473.67 C 286.04 468.55, 287.59 465.54, 289.79 461.05 C 291.98 456.56, 293.42 454.55, 294.37 451.23 C 295.31 447.91, 295.36 446.10, 294.49 444.45 C 293.63 442.80, 291.70 442.26, 290.05 442.99" style="stroke: #1781b5; fill: #1781b5;"/><path d="M 446.76,444.60 C 445.09 444.86, 444.01 445.40, 442.52 447.53 C 441.02 449.67, 440.91 451.56, 439.30 455.28 C 437.70 459.00, 436.66 461.65, 434.51 466.12 C 432.35 470.60, 430.93 473.30, 428.52 477.66 C 426.11 482.02, 424.70 484.34, 422.46 487.92 C 420.22 491.50, 418.48 492.90, 417.32 495.56 C 416.17 498.23, 416.63 499.54, 416.69 501.24 C 416.75 502.94, 417.00 503.35, 417.61 504.07 C 418.22 504.79, 418.82 504.93, 419.72 504.85 C 420.62 504.77, 420.86 504.64, 422.12 503.68 C 423.37 502.71, 424.54 502.42, 425.99 500.03 C 427.44 497.64, 427.57 495.47, 429.36 491.71 C 431.16 487.96, 432.52 485.61, 434.97 481.25 C 437.41 476.89, 439.05 474.28, 441.61 469.92 C 444.17 465.56, 445.73 463.12, 447.77 459.47 C 449.82 455.81, 451.22 454.30, 451.84 451.64 C 452.46 448.99, 451.89 447.62, 450.87 446.21 C 449.86 444.80, 448.43 444.33, 446.76 444.60" style="stroke: #1781b5; fill: #1781b5;"/><path d="M 475.34,390.13 C 474.95 388.40, 474.57 387.48, 473.59 387.81 C 472.61 388.13, 470.91 390.34, 470.44 391.73 C 469.98 393.13, 470.02 394.34, 471.26 394.76 C 472.50 395.18, 475.46 393.71, 476.65 393.83 C 477.84 393.95, 477.45 394.35, 477.20 395.35 C 476.95 396.34, 475.71 398.59, 475.37 398.81 C 475.04 399.03, 475.53 398.17, 475.52 396.43 C 475.52 394.70, 475.73 391.85, 475.34 390.13" style="stroke: #1781b5; fill: #1781b5;"/><path d="M 505.32,444.57 C 503.66 444.77, 502.67 445.36, 501.16 447.30 C 499.64 449.24, 499.37 450.85, 497.73 454.26 C 496.09 457.68, 495.15 460.18, 492.97 464.37 C 490.79 468.56, 489.39 471.02, 486.83 475.22 C 484.26 479.43, 482.73 481.77, 480.14 485.40 C 477.54 489.02, 475.52 490.54, 473.85 493.37 C 472.19 496.19, 471.57 497.60, 471.81 499.53 C 472.05 501.46, 473.21 502.55, 475.04 503.02 C 476.86 503.49, 478.87 503.75, 480.93 501.87 C 482.99 499.98, 482.93 497.44, 485.33 493.59 C 487.74 489.74, 489.29 487.10, 492.95 482.63 C 496.60 478.16, 498.97 475.55, 503.61 471.23 C 508.25 466.91, 511.09 464.64, 516.14 461.03 C 521.20 457.42, 524.12 455.70, 528.90 453.19 C 533.69 450.68, 536.25 449.62, 540.06 448.48 C 543.87 447.35, 545.68 447.62, 547.95 447.50 C 550.22 447.39, 550.71 447.25, 551.42 447.89 C 552.14 448.53, 551.58 448.85, 551.53 450.71 C 551.48 452.58, 551.74 453.95, 551.16 457.20 C 550.57 460.46, 550.03 462.84, 548.59 466.98 C 547.14 471.11, 545.93 473.62, 543.91 477.87 C 541.90 482.13, 540.54 484.49, 538.51 488.25 C 536.47 492.02, 534.94 493.69, 533.74 496.72 C 532.55 499.74, 532.47 501.23, 532.53 503.38 C 532.58 505.53, 533.29 506.39, 534.02 507.45 C 534.74 508.52, 535.41 508.69, 536.17 508.72 C 536.93 508.76, 537.32 507.98, 537.82 507.62 C 538.32 507.27, 538.12 507.45, 538.68 506.95 C 539.23 506.44, 539.81 506.43, 540.60 505.08 C 541.39 503.73, 541.61 502.86, 542.64 500.20 C 543.67 497.53, 544.10 495.57, 545.75 491.77 C 547.39 487.98, 548.75 485.56, 550.87 481.21 C 552.98 476.85, 554.42 474.42, 556.31 470.00 C 558.21 465.58, 559.41 463.26, 560.35 459.11 C 561.30 454.95, 561.91 452.64, 561.04 449.23 C 560.16 445.82, 558.63 444.06, 555.98 442.07 C 553.33 440.07, 551.41 439.23, 547.77 439.24 C 544.13 439.25, 542.12 440.34, 537.78 442.12 C 533.45 443.89, 531.05 445.22, 526.09 448.11 C 521.13 451.01, 518.22 452.82, 512.97 456.60 C 507.72 460.37, 504.82 462.70, 499.82 467.00 C 494.83 471.29, 492.32 473.87, 487.99 478.07 C 483.67 482.28, 481.50 484.57, 478.21 488.02 C 474.92 491.48, 472.65 492.65, 471.54 495.33 C 470.42 498.00, 471.52 499.87, 472.63 501.39 C 473.74 502.90, 475.24 503.49, 477.08 502.92 C 478.92 502.35, 479.94 501.21, 481.84 498.54 C 483.74 495.87, 484.32 493.44, 486.58 489.56 C 488.84 485.69, 490.41 483.37, 493.11 479.17 C 495.82 474.98, 497.46 472.62, 500.12 468.58 C 502.79 464.54, 504.40 462.36, 506.44 458.98 C 508.48 455.59, 509.72 454.20, 510.33 451.66 C 510.94 449.12, 510.49 447.70, 509.49 446.28 C 508.49 444.87, 506.99 444.37, 505.32 444.57" style="stroke: #1781b5; fill: #1781b5;"/><path d="M 606.71,448.73 C 605.01 448.91, 603.90 449.46, 602.26 451.52 C 600.61 453.58, 600.33 455.42, 598.47 459.03 C 596.61 462.64, 595.31 465.23, 592.96 469.56 C 590.60 473.89, 589.18 476.46, 586.69 480.67 C 584.20 484.89, 582.70 487.02, 580.51 490.64 C 578.32 494.25, 576.50 496.00, 575.72 498.74 C 574.95 501.48, 575.81 502.81, 576.64 504.36 C 577.47 505.90, 578.81 506.21, 579.88 506.47 C 580.94 506.73, 582.07 506.30, 581.96 505.65 C 581.84 505.00, 579.77 503.46, 579.29 503.21 C 578.81 502.96, 579.03 504.04, 579.54 504.39 C 580.05 504.74, 580.78 505.35, 581.83 504.95 C 582.89 504.55, 583.63 504.49, 584.80 502.40 C 585.98 500.31, 586.04 498.08, 587.71 494.50 C 589.38 490.92, 590.70 488.64, 593.15 484.48 C 595.60 480.33, 597.25 477.87, 599.95 473.73 C 602.65 469.59, 604.37 467.28, 606.64 463.79 C 608.92 460.30, 610.48 458.92, 611.30 456.29 C 612.13 453.65, 611.70 452.13, 610.78 450.62 C 609.86 449.11, 608.41 448.55, 606.71 448.73" style="stroke: #1781b5; fill: #1781b5;"/><path d="M 632.83,395.16 C 634.44 394.77, 634.94 395.00, 634.71 395.10 C 634.49 395.20, 633.14 395.77, 631.71 395.67 C 630.28 395.58, 629.04 394.56, 627.57 394.62 C 626.11 394.68, 624.56 395.48, 624.37 395.98 C 624.18 396.47, 624.93 397.25, 626.62 397.09 C 628.32 396.93, 631.21 395.56, 632.83 395.16" style="stroke: #1781b5; fill: #1781b5;"/><path d="M 797.47,387.20 C 795.93 387.34, 794.95 387.55, 793.59 389.44 C 792.22 391.33, 792.10 392.89, 790.64 396.66 C 789.17 400.43, 788.47 403.06, 786.27 408.29 C 784.07 413.53, 782.60 416.70, 779.61 422.84 C 776.63 428.97, 774.77 432.45, 771.35 438.96 C 767.93 445.47, 765.96 448.94, 762.52 455.39 C 759.08 461.84, 757.26 465.19, 754.16 471.20 C 751.05 477.22, 749.53 480.24, 746.99 485.47 C 744.46 490.71, 743.40 493.16, 741.48 497.36 C 739.57 501.56, 738.40 503.34, 737.40 506.47 C 736.41 509.61, 736.38 511.01, 736.50 513.03 C 736.61 515.04, 737.33 515.63, 737.97 516.56 C 738.61 517.48, 739.02 517.52, 739.68 517.67 C 740.34 517.81, 740.70 517.52, 741.28 517.30 C 741.86 517.07, 741.93 517.18, 742.56 516.54 C 743.19 515.91, 743.83 515.70, 744.44 514.13 C 745.06 512.55, 744.99 511.57, 745.61 508.68 C 746.23 505.78, 746.28 503.85, 747.54 499.65 C 748.80 495.45, 749.72 492.94, 751.90 487.68 C 754.09 482.43, 755.53 479.39, 758.47 473.37 C 761.42 467.35, 763.20 464.00, 766.63 457.58 C 770.06 451.16, 772.04 447.70, 775.61 441.27 C 779.18 434.83, 781.11 431.37, 784.48 425.39 C 787.85 419.41, 789.55 416.35, 792.45 411.39 C 795.35 406.42, 796.99 404.19, 798.98 400.56 C 800.98 396.93, 801.97 395.60, 802.43 393.23 C 802.89 390.87, 802.27 389.96, 801.28 388.76 C 800.29 387.55, 799.01 387.07, 797.47 387.20" style="stroke: #1781b5; fill: #1781b5;"/><path d="M 735.53,465.08 C 736.57 466.38, 737.55 467.11, 740.01 467.27 C 742.47 467.43, 744.06 466.61, 747.82 465.89 C 751.59 465.16, 754.04 464.44, 758.83 463.62 C 763.62 462.80, 766.53 462.40, 771.77 461.78 C 777.01 461.15, 779.86 460.89, 785.05 460.49 C 790.24 460.08, 793.22 460.01, 797.71 459.75 C 802.19 459.49, 804.37 459.78, 807.47 459.18 C 810.57 458.59, 812.10 457.97, 813.20 456.77 C 814.30 455.57, 814.24 454.25, 812.98 453.19 C 811.73 452.14, 810.10 451.64, 806.93 451.49 C 803.75 451.34, 801.60 451.97, 797.11 452.44 C 792.62 452.91, 789.67 453.34, 784.47 453.84 C 779.28 454.33, 776.43 454.57, 771.13 454.93 C 765.83 455.28, 762.90 455.38, 757.96 455.61 C 753.03 455.84, 750.39 455.74, 746.47 456.08 C 742.55 456.41, 740.71 456.32, 738.38 457.26 C 736.04 458.21, 735.38 459.23, 734.81 460.80 C 734.24 462.36, 734.48 463.79, 735.53 465.08" style="stroke: #1781b5; fill: #1781b5;"/><path d="M 852.51,452.34 C 850.81 452.32, 849.50 452.61, 847.67 454.56 C 845.84 456.51, 845.40 458.45, 843.35 462.08 C 841.29 465.72, 839.92 468.32, 837.40 472.73 C 834.88 477.14, 833.35 479.77, 830.75 484.12 C 828.16 488.47, 826.71 490.72, 824.43 494.46 C 822.15 498.20, 820.80 499.92, 819.37 502.82 C 817.94 505.71, 817.53 506.94, 817.27 508.94 C 817.02 510.94, 817.64 511.77, 818.10 512.83 C 818.55 513.88, 818.95 513.92, 819.55 514.21 C 820.15 514.49, 820.49 514.34, 821.10 514.27 C 821.71 514.19, 821.82 514.32, 822.62 513.84 C 823.42 513.36, 824.08 513.27, 825.10 511.85 C 826.12 510.43, 826.52 509.46, 827.72 506.72 C 828.92 503.98, 829.26 501.90, 831.11 498.14 C 832.96 494.37, 834.36 492.13, 836.97 487.90 C 839.58 483.66, 841.31 481.14, 844.17 476.99 C 847.03 472.83, 848.86 470.52, 851.28 467.12 C 853.69 463.72, 855.26 462.49, 856.24 460.01 C 857.23 457.53, 856.95 456.23, 856.20 454.70 C 855.46 453.17, 854.22 452.37, 852.51 452.34" style="stroke: #1781b5; fill: #1781b5;"/><path d="M 879.85,399.27 C 879.14 397.61, 878.43 396.63, 877.45 396.93 C 876.46 397.22, 875.18 399.37, 874.94 400.76 C 874.70 402.15, 875.01 403.35, 876.24 403.88 C 877.48 404.41, 879.91 403.19, 881.11 403.42 C 882.32 403.65, 882.24 404.11, 882.27 405.02 C 882.31 405.93, 881.56 407.94, 881.30 407.98 C 881.04 408.03, 881.26 406.99, 880.97 405.25 C 880.68 403.51, 880.55 400.94, 879.85 399.27" style="stroke: #1781b5; fill: #1781b5;"/><path d="M 943.55,399.86 C 941.86 399.88, 940.57 400.15, 938.75 402.28 C 936.93 404.41, 936.77 406.42, 934.45 410.50 C 932.14 414.58, 930.50 417.36, 927.19 422.67 C 923.87 427.98, 921.86 431.14, 917.88 437.06 C 913.91 442.99, 911.46 446.29, 907.32 452.29 C 903.17 458.29, 900.91 461.43, 897.15 467.05 C 893.39 472.67, 891.56 475.48, 888.51 480.38 C 885.45 485.29, 884.10 487.58, 881.87 491.56 C 879.65 495.55, 878.25 497.20, 877.39 500.29 C 876.54 503.38, 877.08 504.93, 877.60 507.00 C 878.12 509.07, 878.98 509.79, 879.98 510.64 C 880.98 511.49, 881.82 511.55, 882.60 511.24 C 883.38 510.92, 883.58 509.65, 883.87 509.05 C 884.17 508.45, 883.85 508.72, 884.08 508.24 C 884.30 507.76, 884.63 507.82, 885.00 506.67 C 885.37 505.52, 885.36 504.95, 885.94 502.49 C 886.51 500.04, 886.42 498.25, 887.87 494.37 C 889.33 490.50, 890.54 488.06, 893.22 483.13 C 895.89 478.20, 897.64 475.36, 901.26 469.75 C 904.87 464.13, 907.09 460.99, 911.27 455.05 C 915.45 449.12, 917.94 445.83, 922.16 440.07 C 926.38 434.31, 928.59 431.26, 932.39 426.25 C 936.18 421.23, 938.23 418.72, 941.15 414.99 C 944.07 411.26, 945.78 410.15, 946.98 407.59 C 948.19 405.03, 947.87 403.72, 947.18 402.18 C 946.50 400.63, 945.24 399.84, 943.55 399.86" style="stroke: #1781b5; fill: #1781b5;"/><path d="M 955.69,457.40 C 954.28 456.47, 953.00 456.27, 950.69 456.85 C 948.38 457.42, 947.11 458.28, 944.14 460.27 C 941.17 462.26, 939.31 463.98, 935.82 466.80 C 932.33 469.63, 930.35 471.38, 926.69 474.38 C 923.02 477.38, 920.92 478.94, 917.51 481.81 C 914.10 484.68, 912.12 485.91, 909.66 488.74 C 907.19 491.57, 905.97 492.95, 905.18 495.94 C 904.39 498.93, 904.54 500.89, 905.70 503.70 C 906.86 506.50, 908.07 508.39, 910.99 509.97 C 913.92 511.56, 916.10 511.48, 920.30 511.60 C 924.51 511.73, 926.93 511.27, 932.00 510.58 C 937.07 509.90, 940.02 509.34, 945.67 508.19 C 951.31 507.05, 954.93 506.17, 960.24 504.86 C 965.56 503.56, 968.37 503.04, 972.23 501.66 C 976.09 500.29, 978.31 499.47, 979.54 497.99 C 980.77 496.50, 980.20 494.77, 978.38 494.23 C 976.56 493.69, 974.38 494.46, 970.44 495.27 C 966.49 496.08, 963.85 497.04, 958.64 498.29 C 953.44 499.54, 949.88 500.62, 944.43 501.54 C 938.97 502.46, 936.05 502.80, 931.38 502.90 C 926.71 503.01, 924.39 502.56, 921.07 502.07 C 917.76 501.59, 916.59 500.78, 914.80 500.47 C 913.01 500.17, 912.48 500.82, 912.13 500.54 C 911.78 500.26, 912.17 500.24, 913.04 499.06 C 913.90 497.88, 914.50 496.90, 916.45 494.65 C 918.40 492.40, 919.76 490.60, 922.79 487.81 C 925.82 485.01, 927.96 483.38, 931.61 480.66 C 935.25 477.93, 937.37 476.41, 941.03 474.17 C 944.70 471.94, 947.01 471.18, 949.93 469.48 C 952.84 467.77, 954.05 467.23, 955.61 465.63 C 957.17 464.03, 957.73 463.13, 957.75 461.48 C 957.76 459.84, 957.11 458.33, 955.69 457.40" style="stroke: #1781b5; fill: #1781b5;"/><path d="M 1049.43,409.54 C 1047.89 409.67, 1047.06 409.95, 1045.67 411.73 C 1044.28 413.50, 1043.94 414.86, 1042.49 418.43 C 1041.03 422.00, 1040.45 424.65, 1038.40 429.58 C 1036.36 434.52, 1034.97 437.52, 1032.26 443.11 C 1029.55 448.69, 1027.83 451.81, 1024.85 457.51 C 1021.87 463.21, 1020.18 466.25, 1017.38 471.61 C 1014.58 476.96, 1013.18 479.65, 1010.85 484.29 C 1008.52 488.94, 1007.47 491.10, 1005.73 494.82 C 1004.00 498.53, 1002.88 500.11, 1002.18 502.87 C 1001.48 505.62, 1001.84 506.91, 1002.22 508.61 C 1002.61 510.31, 1003.39 510.72, 1004.09 511.38 C 1004.80 512.03, 1005.20 511.88, 1005.74 511.89 C 1006.28 511.90, 1006.33 511.61, 1006.79 511.43 C 1007.24 511.25, 1007.42 511.43, 1008.01 511.00 C 1008.61 510.56, 1009.15 510.43, 1009.77 509.25 C 1010.40 508.07, 1010.58 507.45, 1011.15 505.09 C 1011.72 502.72, 1011.57 501.07, 1012.62 497.42 C 1013.67 493.77, 1014.46 491.50, 1016.40 486.84 C 1018.34 482.18, 1019.66 479.48, 1022.32 474.13 C 1024.98 468.78, 1026.65 465.74, 1029.72 460.10 C 1032.78 454.46, 1034.56 451.36, 1037.63 445.92 C 1040.70 440.48, 1042.34 437.55, 1045.06 432.89 C 1047.78 428.22, 1049.35 426.04, 1051.24 422.59 C 1053.12 419.14, 1054.04 417.94, 1054.47 415.64 C 1054.89 413.34, 1054.37 412.31, 1053.36 411.09 C 1052.36 409.87, 1050.97 409.41, 1049.43 409.54" style="stroke: #1781b5; fill: #1781b5;"/><path d="M 1000.54,468.30 C 1001.52 469.59, 1002.41 470.26, 1004.72 470.49 C 1007.04 470.73, 1008.52 470.10, 1012.13 469.48 C 1015.75 468.85, 1018.10 468.09, 1022.80 467.36 C 1027.49 466.62, 1030.36 466.29, 1035.61 465.80 C 1040.86 465.30, 1044.13 465.20, 1049.03 464.88 C 1053.93 464.57, 1056.50 464.72, 1060.12 464.22 C 1063.73 463.72, 1065.72 463.53, 1067.10 462.40 C 1068.48 461.26, 1068.48 459.61, 1067.02 458.54 C 1065.56 457.46, 1063.49 457.20, 1059.80 457.02 C 1056.11 456.85, 1053.51 457.34, 1048.56 457.67 C 1043.62 457.99, 1040.38 458.36, 1035.07 458.66 C 1029.77 458.96, 1026.89 459.03, 1022.06 459.15 C 1017.22 459.28, 1014.66 459.01, 1010.88 459.29 C 1007.10 459.57, 1005.37 459.61, 1003.15 460.56 C 1000.94 461.52, 1000.33 462.50, 999.80 464.05 C 999.28 465.60, 999.55 467.01, 1000.54 468.30" style="stroke: #1781b5; fill: #1781b5;"/><path d="M 1131.28,460.26 C 1130.99 458.57, 1130.22 457.54, 1128.23 456.28 C 1126.24 455.03, 1124.59 454.01, 1121.35 453.99 C 1118.10 453.96, 1115.88 454.78, 1112.00 456.15 C 1108.12 457.51, 1106.11 458.60, 1101.95 460.83 C 1097.78 463.06, 1095.41 464.42, 1091.18 467.28 C 1086.95 470.14, 1084.58 471.83, 1080.79 475.13 C 1077.00 478.43, 1075.05 480.25, 1072.23 483.78 C 1069.42 487.31, 1067.90 489.11, 1066.73 492.78 C 1065.56 496.44, 1065.42 498.68, 1066.38 502.12 C 1067.35 505.56, 1068.60 507.76, 1071.56 509.98 C 1074.52 512.20, 1076.91 512.65, 1081.20 513.21 C 1085.49 513.78, 1087.98 513.48, 1093.00 512.81 C 1098.02 512.14, 1100.91 511.45, 1106.30 509.86 C 1111.68 508.28, 1114.66 507.25, 1119.93 504.89 C 1125.20 502.53, 1128.01 501.06, 1132.65 498.06 C 1137.30 495.07, 1139.58 493.34, 1143.15 489.93 C 1146.73 486.52, 1148.32 484.69, 1150.54 481.02 C 1152.76 477.36, 1153.83 475.28, 1154.26 471.60 C 1154.68 467.93, 1154.05 465.80, 1152.64 462.65 C 1151.23 459.49, 1149.83 457.88, 1147.20 455.83 C 1144.58 453.78, 1142.47 452.63, 1139.50 452.41 C 1136.54 452.19, 1133.86 453.14, 1132.37 454.74 C 1130.88 456.33, 1131.09 458.64, 1132.04 460.38 C 1132.99 462.12, 1135.24 462.60, 1137.12 463.43 C 1139.00 464.26, 1139.98 463.86, 1141.42 464.52 C 1142.86 465.18, 1143.57 465.49, 1144.33 466.74 C 1145.09 467.98, 1145.32 468.65, 1145.20 470.76 C 1145.08 472.88, 1145.12 474.42, 1143.75 477.30 C 1142.39 480.18, 1141.27 482.04, 1138.36 485.15 C 1135.45 488.25, 1133.39 490.01, 1129.20 492.81 C 1125.02 495.61, 1122.34 497.04, 1117.41 499.15 C 1112.48 501.26, 1109.59 502.16, 1104.56 503.35 C 1099.54 504.55, 1096.67 504.93, 1092.29 505.13 C 1087.91 505.34, 1085.69 505.01, 1082.65 504.38 C 1079.60 503.75, 1078.68 502.89, 1077.05 501.96 C 1075.43 501.04, 1074.92 501.05, 1074.51 499.75 C 1074.10 498.46, 1074.22 497.76, 1075.01 495.50 C 1075.79 493.25, 1076.30 491.45, 1078.42 488.47 C 1080.54 485.49, 1082.25 483.60, 1085.61 480.61 C 1088.97 477.62, 1091.26 475.99, 1095.23 473.53 C 1099.20 471.08, 1101.62 469.85, 1105.45 468.34 C 1109.29 466.84, 1111.24 466.33, 1114.38 466.00 C 1117.52 465.67, 1118.85 466.65, 1121.15 466.71 C 1123.45 466.77, 1124.19 466.68, 1125.89 466.29 C 1127.60 465.90, 1128.60 465.96, 1129.68 464.75 C 1130.76 463.55, 1131.57 461.95, 1131.28 460.26" style="stroke: #1781b5; fill: #1781b5;"/><path d="M 1218.49,404.88 C 1217.05 404.76, 1216.38 404.74, 1214.85 406.11 C 1213.32 407.48, 1212.71 408.53, 1210.83 411.71 C 1208.94 414.90, 1208.09 417.42, 1205.43 422.04 C 1202.77 426.66, 1200.99 429.49, 1197.54 434.83 C 1194.09 440.18, 1191.93 443.22, 1188.19 448.77 C 1184.44 454.33, 1182.34 457.30, 1178.81 462.60 C 1175.29 467.91, 1173.50 470.62, 1170.56 475.30 C 1167.62 479.97, 1166.18 482.12, 1164.11 485.98 C 1162.03 489.85, 1160.74 491.63, 1160.17 494.62 C 1159.61 497.62, 1160.34 499.57, 1161.27 500.94 C 1162.20 502.31, 1163.55 502.30, 1164.81 501.48 C 1166.07 500.67, 1166.47 499.37, 1167.57 496.88 C 1168.68 494.38, 1168.73 492.72, 1170.32 488.99 C 1171.92 485.27, 1172.96 482.94, 1175.55 478.24 C 1178.14 473.55, 1179.85 470.80, 1183.27 465.52 C 1186.68 460.23, 1188.76 457.27, 1192.60 451.82 C 1196.44 446.36, 1198.65 443.36, 1202.46 438.25 C 1206.27 433.14, 1208.28 430.47, 1211.64 426.27 C 1214.99 422.08, 1216.98 420.34, 1219.24 417.28 C 1221.49 414.22, 1222.33 413.07, 1222.90 410.96 C 1223.47 408.84, 1222.95 407.92, 1222.06 406.70 C 1221.18 405.48, 1219.93 404.99, 1218.49 404.88" style="stroke: #1781b5; fill: #1781b5;"/><path d="M 1241.58,445.03 C 1240.71 443.51, 1239.59 442.51, 1237.01 442.00 C 1234.42 441.50, 1232.56 441.81, 1228.66 442.51 C 1224.75 443.21, 1222.20 443.97, 1217.48 445.50 C 1212.76 447.03, 1210.04 448.11, 1205.08 450.14 C 1200.11 452.18, 1197.32 453.38, 1192.64 455.66 C 1187.96 457.94, 1185.51 459.15, 1181.67 461.55 C 1177.82 463.95, 1175.66 464.80, 1173.40 467.64 C 1171.14 470.48, 1170.48 472.47, 1170.37 475.74 C 1170.26 479.02, 1170.73 481.33, 1172.85 484.01 C 1174.98 486.70, 1177.08 487.57, 1181.00 489.18 C 1184.93 490.79, 1187.40 491.08, 1192.48 492.08 C 1197.57 493.08, 1200.57 493.44, 1206.43 494.18 C 1212.30 494.92, 1216.11 495.20, 1221.80 495.78 C 1227.49 496.37, 1230.52 496.91, 1234.89 497.11 C 1239.25 497.31, 1241.79 497.65, 1243.61 496.79 C 1245.43 495.92, 1245.61 493.99, 1243.99 492.79 C 1242.38 491.59, 1239.84 491.50, 1235.54 490.81 C 1231.24 490.11, 1228.12 489.94, 1222.49 489.32 C 1216.86 488.69, 1213.01 488.58, 1207.37 487.66 C 1201.73 486.75, 1198.82 486.12, 1194.29 484.75 C 1189.75 483.38, 1187.66 482.26, 1184.69 480.83 C 1181.73 479.39, 1180.85 478.52, 1179.45 477.59 C 1178.05 476.66, 1177.57 477.00, 1177.69 476.16 C 1177.81 475.32, 1178.42 475.06, 1180.06 473.40 C 1181.70 471.73, 1182.76 470.13, 1185.89 467.82 C 1189.02 465.51, 1191.38 464.07, 1195.73 461.86 C 1200.07 459.65, 1202.85 458.46, 1207.61 456.77 C 1212.37 455.08, 1215.09 454.29, 1219.55 453.42 C 1224.01 452.54, 1226.41 452.66, 1229.92 452.41 C 1233.44 452.16, 1234.84 452.73, 1237.12 452.17 C 1239.40 451.61, 1240.44 451.03, 1241.33 449.61 C 1242.23 448.18, 1242.44 446.55, 1241.58 445.03" style="stroke: #1781b5; fill: #1781b5;"/></svg>